<svg width="99" height="99" viewBox="0 0 99 99" fill="none" xmlns="http://www.w3.org/2000/svg">
<path d="M23.0444 31.8492H3.17002C2.28796 31.8492 1.57324 32.5643 1.57324 33.446V97.294C1.57324 98.176 2.28796 98.8908 3.17002 98.8908H23.0444C23.9265 98.8908 24.6412 98.176 24.6412 97.294V33.446C24.6412 32.5643 23.9265 31.8492 23.0444 31.8492Z" fill="white"/>
<path d="M13.1146 0.108887C5.88316 0.108887 0 5.98565 0 13.2091C0 20.4358 5.88316 26.3148 13.1146 26.3148C20.3404 26.3148 26.2187 20.4355 26.2187 13.2091C26.219 5.98565 20.3404 0.108887 13.1146 0.108887Z" fill="white"/>
<path d="M73.597 30.2623C65.6147 30.2623 59.714 33.6938 56.135 37.5928V33.446C56.135 32.5642 55.4203 31.8492 54.5382 31.8492H35.505C34.6229 31.8492 33.9082 32.5642 33.9082 33.446V97.2939C33.9082 98.176 34.6229 98.8907 35.505 98.8907H55.336C56.218 98.8907 56.9327 98.176 56.9327 97.2939V65.704C56.9327 55.059 59.8242 50.9118 67.2447 50.9118C75.3263 50.9118 75.9685 57.5601 75.9685 66.2517V97.2943C75.9685 98.1763 76.6832 98.891 77.5653 98.891H97.4036C98.2857 98.891 99.0004 98.1763 99.0004 97.2943V62.2725C99.0004 46.4437 95.9822 30.2623 73.597 30.2623Z" fill="white"/>
</svg>
