<svg width="101" height="42" viewBox="0 0 101 42" fill="none" xmlns="http://www.w3.org/2000/svg">
<rect x="18" y="18" width="83" height="24" rx="12" fill="#FADF7C"/>
<path d="M37.2647 32.596C37.2647 33.352 37.3247 33.724 37.5047 34H36.2447C36.0647 33.724 36.0047 33.352 36.0047 32.596V31.96C36.0047 31.024 35.3807 30.7 34.6127 30.7H32.1527V34H30.8927V25.6H34.2887C36.3167 25.6 37.2407 26.596 37.2407 28.036C37.2407 29.08 36.7127 29.74 35.9567 30.112C36.8927 30.436 37.2647 30.988 37.2647 31.924V32.596ZM34.3607 29.68C35.3807 29.68 35.9447 29.152 35.9447 28.156C35.9447 27.184 35.3687 26.704 34.2647 26.704H32.1527V29.68H34.3607ZM44.0296 30.988C44.0296 31.096 44.0296 31.192 44.0176 31.3H39.3856C39.5056 32.608 40.2016 33.16 41.2576 33.16C41.9896 33.16 42.4216 32.956 42.7336 32.476H43.8256C43.3696 33.592 42.5176 34.084 41.1856 34.084C39.6856 34.084 38.2216 33.112 38.2216 30.904C38.2216 28.66 39.7096 27.7 41.1856 27.7C42.6976 27.7 44.0296 28.66 44.0296 30.988ZM39.3856 30.508H42.8656C42.8416 29.296 42.1936 28.624 41.1856 28.624C40.2256 28.624 39.5056 29.236 39.3856 30.508ZM50.1967 32.752C50.1967 33.1 50.3287 33.244 50.6527 33.244V33.964C50.4967 34.036 50.3647 34.048 50.1847 34.048C49.5367 34.048 49.0927 33.784 49.0927 33.124V32.812C48.9607 33.088 48.3247 34.084 46.8247 34.084C45.6847 34.084 44.7607 33.484 44.7607 32.212C44.7607 31 45.6367 30.58 46.9927 30.364C47.7127 30.244 48.5767 30.148 48.9847 29.92V29.86C48.9847 28.864 48.4447 28.612 47.6407 28.612C46.8367 28.612 46.3807 28.888 46.2847 29.464H45.1327C45.2527 28.3 46.1407 27.7 47.6527 27.7C49.4047 27.7 50.1967 28.384 50.1967 30.148V32.752ZM48.9847 32.02V30.676C48.6007 30.868 47.9047 30.976 47.1607 31.108C46.2727 31.276 45.9727 31.588 45.9727 32.164C45.9727 32.764 46.3687 33.196 47.1247 33.196C48.2647 33.196 48.8287 32.308 48.9847 32.02ZM53.9777 27.7C54.8897 27.7 55.6217 28.18 55.9457 28.804V25.528H57.1577V34H55.9457V32.836C55.7417 33.376 55.1057 34.084 54.0017 34.084C52.7057 34.084 51.2177 33.148 51.2177 30.88C51.2177 28.648 52.7177 27.7 53.9777 27.7ZM54.2057 33.088C55.1537 33.088 56.0057 32.38 56.0057 30.88C56.0057 29.368 55.1537 28.696 54.2057 28.696C53.2337 28.696 52.3937 29.356 52.3937 30.88C52.3937 32.416 53.2337 33.088 54.2057 33.088ZM61.7599 25.6H63.1879L66.1039 32.356L69.0079 25.6H70.4479V34H69.1759V27.844H69.1279L66.5959 34H65.6119L63.0679 27.844H63.0199V34H61.7599V25.6ZM74.4434 27.7C75.7874 27.7 77.3954 28.648 77.3954 30.892C77.3954 33.136 75.7874 34.084 74.4434 34.084C73.0874 34.084 71.4794 33.136 71.4794 30.892C71.4794 28.648 73.0874 27.7 74.4434 27.7ZM76.2314 30.892C76.2314 29.368 75.3674 28.696 74.4434 28.696C73.5194 28.696 72.6434 29.368 72.6434 30.892C72.6434 32.416 73.5194 33.088 74.4434 33.088C75.3674 33.088 76.2314 32.416 76.2314 30.892ZM81.6997 27.7C81.8317 27.7 81.9757 27.7 82.1677 27.736V28.804C81.9757 28.792 81.8677 28.792 81.7837 28.792C80.4997 28.792 79.8277 29.44 79.6477 30.46V34H78.4357V27.76H79.6477V29.236C79.8397 28.396 80.5357 27.7 81.6997 27.7ZM88.4202 30.988C88.4202 31.096 88.4202 31.192 88.4082 31.3H83.7762C83.8962 32.608 84.5922 33.16 85.6482 33.16C86.3802 33.16 86.8122 32.956 87.1242 32.476H88.2162C87.7602 33.592 86.9082 34.084 85.5762 34.084C84.0762 34.084 82.6122 33.112 82.6122 30.904C82.6122 28.66 84.1002 27.7 85.5762 27.7C87.0882 27.7 88.4202 28.66 88.4202 30.988ZM83.7762 30.508H87.2562C87.2322 29.296 86.5842 28.624 85.5762 28.624C84.6162 28.624 83.8962 29.236 83.7762 30.508Z" fill="black"/>
<g clip-path="url(#clip0_158_3)">
<path d="M17.6827 7.40681L0.737498 0.0436981C0.53883 -0.0426103 0.307643 0.00133492 0.154468 0.154475C0.00132729 0.307651 -0.0426179 0.538908 0.0436905 0.737541L7.4068 17.6828C7.49082 17.8762 7.68137 18 7.8903 18C7.90025 18 7.91027 17.9997 7.92022 17.9992C8.14076 17.9867 8.33014 17.8381 8.39473 17.6269L9.97366 12.4643C10.3389 11.2701 11.27 10.339 12.4643 9.9737L17.6268 8.39477C17.838 8.33015 17.9866 8.14077 17.9991 7.92027C18.0116 7.69977 17.8853 7.49484 17.6827 7.40681Z" fill="#FADF7C"/>
</g>
<defs>
<clipPath id="clip0_158_3">
<rect width="18" height="18" fill="white"/>
</clipPath>
</defs>
</svg>
