<?xml version="1.0" standalone="no"?>
<!DOCTYPE svg PUBLIC "-//W3C//DTD SVG 20010904//EN"
 "http://www.w3.org/TR/2001/REC-SVG-20010904/DTD/svg10.dtd">
<svg version="1.0" xmlns="http://www.w3.org/2000/svg"
 width="512.000000pt" height="512.000000pt" viewBox="0 0 512.000000 512.000000"
 preserveAspectRatio="xMidYMid meet">
<metadata>
Created by potrace 1.14, written by Peter Selinger 2001-2017
</metadata>
<g transform="translate(0.000000,512.000000) scale(0.100000,-0.100000)"
fill="#000000" stroke="none">
<path d="M0 2560 l0 -2560 2560 0 2560 0 0 2560 0 2560 -2560 0 -2560 0 0
-2560z m2602 1735 c-38 -42 -76 -108 -91 -156 -8 -24 -26 -46 -55 -67 -61 -42
-127 -129 -185 -242 -39 -75 -101 -226 -101 -245 0 -2 43 -17 96 -35 53 -17
139 -50 192 -72 54 -22 106 -42 117 -45 11 -2 68 16 128 41 351 148 728 224
980 199 240 -24 379 -107 454 -270 24 -51 27 -71 27 -158 1 -116 -15 -178 -78
-305 -49 -101 -117 -205 -197 -300 -33 -38 -59 -73 -59 -78 0 -4 23 -35 51
-67 117 -138 224 -324 265 -460 36 -121 21 -284 -36 -370 -17 -27 -20 -27 -26
-10 -20 59 -65 145 -93 177 -23 27 -31 45 -31 74 0 53 -39 160 -91 250 -39 69
-177 253 -189 254 -3 0 -39 -30 -80 -66 -41 -37 -118 -100 -171 -141 l-97 -74
-11 -92 c-51 -406 -163 -745 -324 -980 -231 -338 -568 -350 -805 -30 -64 87
-151 253 -192 368 -18 50 -34 91 -35 93 -1 1 -40 -6 -86 -15 -122 -25 -439
-25 -529 0 -96 26 -161 61 -222 116 -50 45 -98 114 -88 124 3 3 33 0 68 -6 42
-6 82 -6 125 0 53 9 67 8 97 -7 63 -31 142 -44 265 -44 111 0 281 19 303 33 6
4 2 43 -9 96 -10 50 -26 148 -36 219 l-17 129 -81 60 c-361 273 -635 602 -721
865 -24 72 -29 104 -29 187 0 88 3 107 27 158 37 78 77 127 140 170 145 100
403 131 678 82 47 -8 92 -15 101 -15 11 0 25 24 44 78 15 42 51 125 80 184
138 278 310 425 504 427 l53 1 -30 -35z m417 -95 c78 -39 130 -135 118 -220
-7 -56 -51 -126 -98 -157 -48 -32 -136 -42 -194 -23 -84 28 -145 114 -145 205
0 166 172 271 319 195z m-1771 -1865 c89 -38 151 -140 138 -231 -28 -205 -290
-264 -403 -92 -24 36 -28 51 -28 117 0 69 3 80 32 123 59 84 172 120 261 83z
m2529 -595 c129 -74 150 -236 44 -341 -133 -134 -351 -55 -368 132 -17 181
167 299 324 209z"/>
<path d="M1424 3455 c-191 -41 -253 -151 -190 -338 44 -130 120 -248 268 -414
76 -86 265 -263 305 -286 8 -5 11 46 12 197 1 260 31 549 80 766 5 25 7 48 3
52 -14 14 -222 38 -318 37 -55 0 -127 -7 -160 -14z"/>
<path d="M3378 3454 c-151 -23 -409 -92 -513 -137 l-29 -13 59 -34 c270 -151
522 -327 713 -497 l70 -63 44 53 c100 117 190 270 222 376 51 173 -15 277
-203 317 -82 17 -247 17 -363 -2z"/>
<path d="M2095 3308 c-27 -121 -55 -344 -67 -546 -17 -288 10 -673 66 -940 9
-40 16 -75 16 -77 0 -2 51 13 114 35 430 148 910 427 1235 718 l74 66 -44 38
c-372 326 -828 593 -1272 744 -54 19 -100 34 -102 34 -2 0 -11 -32 -20 -72z
m595 -410 c197 -61 301 -293 214 -478 -37 -78 -95 -137 -172 -176 -50 -26 -68
-29 -147 -29 -78 0 -98 4 -146 27 -102 51 -169 134 -196 244 -29 116 6 235 95
323 97 96 224 128 352 89z"/>
<path d="M2995 1912 c-186 -115 -499 -260 -720 -334 -49 -16 -93 -33 -98 -37
-17 -16 75 -229 146 -338 78 -121 184 -203 262 -203 96 0 234 128 317 295 71
141 151 394 183 574 17 100 17 101 8 100 -5 -1 -48 -26 -98 -57z"/>
</g>
</svg>
